<?xml version="1.0" encoding="utf-8"?>
<!-- Generator: Adobe Illustrator 27.5.0, SVG Export Plug-In . SVG Version: 6.00 Build 0)  -->
<svg version="1.1" xmlns="http://www.w3.org/2000/svg" xmlns:xlink="http://www.w3.org/1999/xlink" x="0px" y="0px"
	 viewBox="0 0 750 500" style="enable-background:new 0 0 750 500;" xml:space="preserve">
<g id="BACKGROUND">
	<rect style="fill:#FFE8E8;" width="750" height="500"/>
	<g>
		<g>
			<path style="fill:#FFFFFD;" d="M527.666,371.033H60.963c-7.168,0-13-5.832-13-13V48.141c0-7.168,5.832-13,13-13h466.703
				c7.168,0,13,5.832,13,13v309.892C540.666,365.201,534.834,371.033,527.666,371.033z M60.963,37.141c-6.066,0-11,4.935-11,11
				v309.892c0,6.065,4.934,11,11,11h466.703c6.065,0,11-4.935,11-11V48.141c0-6.065-4.935-11-11-11H60.963z"/>
		</g>
		<g>
			<path style="fill:#FFFFFD;" d="M689.038,454.239H332.743c-7.168,0-13-5.832-13-13V206.473c0-7.168,5.832-13,13-13h356.295
				c7.168,0,13,5.832,13,13v234.766C702.038,448.407,696.206,454.239,689.038,454.239z M332.743,195.473c-6.065,0-11,4.935-11,11
				v234.766c0,6.065,4.935,11,11,11h356.295c6.065,0,11-4.935,11-11V206.473c0-6.065-4.935-11-11-11H332.743z"/>
		</g>
	</g>
</g>
<g id="OBJECTS">
	<rect x="26.931" y="454.032" style="fill:#2B0D06;" width="666.036" height="4.056"/>
	<g>
		<g>
			<g>
				<path style="fill:#FFA68F;" d="M152.404,141.484L152.404,141.484c-5.257-1.375-8.434-6.801-7.059-12.058l5.841-22.34
					c1.375-5.257,6.801-8.434,12.058-7.059l0,0c5.257,1.375,8.434,6.801,7.059,12.058l-5.841,22.34
					C163.087,139.682,157.661,142.858,152.404,141.484z"/>
				<path style="fill:#EA735A;" d="M159.785,116.176c-3.678-0.962-6.876-2.967-9.477-5.731v0c0,0,4.094,17.269,14.627,22.17
					l4.277-16.357C166.101,116.977,162.91,116.993,159.785,116.176z"/>
				<g>
					<g>
						<g>
							<path style="fill:#EA735A;" d="M194.953,98.723c-0.788,3.013-3.555,4.899-6.181,4.212c-2.626-0.687-4.116-3.686-3.328-6.699
								c0.788-3.013,3.555-4.899,6.181-4.212C194.251,92.711,195.741,95.71,194.953,98.723z"/>
						</g>
					</g>
					<g>
						<g>
							<path style="fill:#FFA68F;" d="M136.56,83.455c-0.788,3.013,0.702,6.012,3.329,6.699c2.626,0.687,5.393-1.199,6.181-4.212
								s-0.702-6.012-3.328-6.699C140.115,78.556,137.348,80.442,136.56,83.455z"/>
						</g>
					</g>
					<g>
						<g>
							<path style="fill:#310B02;" d="M191.042,94.505c0.097-0.105,0.253-0.11,0.344-0.009c0.093,0.101,0.09,0.268-0.008,0.373
								c-0.017,0.019-1.704,1.874-1.659,3.985c0.014,0.644,0.207,1.243,0.54,1.805c1.296-1.339,0.318-3.004,0.274-3.077
								c-0.072-0.119-0.039-0.284,0.074-0.368c0.113-0.084,0.263-0.057,0.336,0.063c0.013,0.022,1.273,2.149-0.412,3.809
								c0.187,0.244,0.402,0.481,0.653,0.706c0.101,0.091,0.112,0.257,0.023,0.371c-0.064,0.083-0.163,0.116-0.251,0.093
								c-0.033-0.009-0.065-0.025-0.093-0.05c-1.056-0.945-1.605-2.061-1.632-3.315C189.183,96.549,190.966,94.587,191.042,94.505z"
								/>
						</g>
					</g>
					<g>
						<path style="fill:#310B02;" d="M142.035,81.691c-0.033-0.14-0.167-0.22-0.296-0.176c-0.13,0.042-0.209,0.189-0.176,0.329
							c0.006,0.025,0.569,2.468-0.504,4.287c-0.327,0.555-0.789,0.983-1.354,1.31c-0.475-1.802,1.193-2.775,1.267-2.818
							c0.121-0.068,0.173-0.228,0.116-0.357c-0.057-0.129-0.202-0.178-0.324-0.11c-0.022,0.013-2.162,1.251-1.505,3.523
							c-0.283,0.121-0.586,0.222-0.916,0.296c-0.133,0.03-0.223,0.169-0.202,0.312c0.015,0.104,0.086,0.181,0.173,0.203
							c0.034,0.009,0.069,0.01,0.105,0.002c1.384-0.307,2.408-1.011,3.045-2.092C142.656,84.383,142.061,81.8,142.035,81.691z"/>
					</g>
					<g>
						<g>
							
								<ellipse transform="matrix(0.253 -0.9675 0.9675 0.253 41.0154 226.9079)" style="fill:#FFA68F;" cx="167.441" cy="86.895" rx="30.662" ry="24.681"/>
						</g>
					</g>
					<g>
						<g>
							<g>
								<path style="fill:#EA735A;" d="M174.854,99.065c0.334-1.279-0.325-2.559-1.473-2.86c-1.148-0.3-2.35,0.493-2.684,1.772
									L174.854,99.065z"/>
							</g>
						</g>
						<g>
							<g>
								<path style="fill:#310B02;" d="M171.588,97.009c-0.06-0.016-0.113-0.056-0.146-0.118c-0.065-0.124-0.023-0.287,0.095-0.363
									c0.569-0.37,1.225-0.487,1.848-0.329c0.006,0.002,0.013,0.003,0.013,0.003c0.622,0.163,1.13,0.575,1.438,1.163
									c0.065,0.124,0.023,0.287-0.095,0.363c-0.117,0.077-0.266,0.038-0.331-0.087c-0.248-0.472-0.662-0.782-1.156-0.928
									c-0.499-0.126-1.025-0.032-1.482,0.264C171.714,97.015,171.648,97.024,171.588,97.009z"/>
							</g>
						</g>
						<g>
							<g>
								<path style="fill:#310B02;" d="M164.019,90.959c-0.295,1.127-0.995,1.92-1.564,1.771c-0.569-0.149-0.792-1.183-0.497-2.31
									c0.295-1.127,0.995-1.92,1.564-1.771C164.092,88.797,164.314,89.831,164.019,90.959z"/>
							</g>
						</g>
						<g>
							<g>
								<path style="fill:#310B02;" d="M185.198,96.496c-0.295,1.127-0.995,1.92-1.564,1.771c-0.569-0.149-0.792-1.183-0.497-2.31
									c0.295-1.127,0.995-1.92,1.564-1.771C185.27,94.335,185.492,95.369,185.198,96.496z"/>
							</g>
						</g>
						<g>
							<g>
								<path style="fill:#FF8F7F;" d="M164.954,97.971c-0.439,1.678-2.765,2.524-5.195,1.888c-2.43-0.635-4.045-2.511-3.606-4.189
									c0.439-1.678,2.765-2.523,5.195-1.888C163.778,94.418,165.393,96.293,164.954,97.971z"/>
							</g>
						</g>
						<g>
							<g>
								<path style="fill:#FF8F7F;" d="M187.603,103.894c-0.439,1.678-2.765,2.524-5.195,1.888
									c-2.431-0.636-4.045-2.511-3.606-4.189c0.439-1.678,2.765-2.523,5.195-1.888
									C186.428,100.34,188.042,102.216,187.603,103.894z"/>
							</g>
						</g>
						<g>
							<g>
								<path style="fill:#2B0D06;" d="M160.507,85.912c-0.128-0.034-0.241-0.125-0.304-0.262c-0.117-0.256-0.016-0.577,0.226-0.715
									c4.311-2.473,6.41,1.671,6.43,1.713c0.124,0.252,0.031,0.573-0.206,0.72c-0.238,0.147-0.532,0.06-0.657-0.189
									c-0.068-0.136-1.694-3.296-5.143-1.315C160.742,85.927,160.619,85.941,160.507,85.912z"/>
							</g>
						</g>
						<g>
							<g>
								<path style="fill:#2B0D06;" d="M182.284,91.606c-0.128-0.034-0.241-0.124-0.304-0.262c-0.117-0.256-0.016-0.577,0.226-0.715
									c4.312-2.474,6.41,1.671,6.43,1.713c0.124,0.251,0.031,0.573-0.206,0.72c-0.239,0.147-0.532,0.06-0.657-0.189
									c-0.068-0.136-1.693-3.296-5.143-1.315C182.519,91.621,182.396,91.635,182.284,91.606z"/>
							</g>
						</g>
						<g>
							<g>
								<path style="fill:#FFFFFF;" d="M176.726,103.514c0,0-5.731,3.384-10.261-2.683L176.726,103.514z"/>
							</g>
						</g>
					</g>
				</g>
				<path style="fill:#2B0D06;" d="M201.293,58.611c-2.358-0.391-4.671-0.247-6.865,0.324c-1.018,0.1-2.016,0.309-2.978,0.635
					c-0.035-5.156-2.188-10.056-7.552-12.227c-6.4-2.59-12.624,0.327-16.358,5.332c-2.946-3.59-7.744-5.563-12.575-4.116
					c-3.499,1.048-6.523,3.632-7.992,6.982c-0.872,1.988-1.084,4.031-0.933,6.075c-0.064,0.312-0.095,0.632-0.107,0.958
					c-1.59-0.325-3.266-0.202-4.844,0.314c-1.173,0.19-2.287,0.756-3.141,1.608c-0.041,0.041-0.07,0.092-0.109,0.134
					c-0.205,0.161-0.406,0.327-0.599,0.503c-3.666,3.362-4.342,9.168-2.573,13.643c0.332,0.84,1.886,1.9,2.363,2.673
					c0.992-1.216,1.427-2.265,3.136-2.264c2.449,0.002,4.767,1.584,5.958,3.678c0.906,1.592,1.14,3.335,1.022,5.1
					c4.363,0.083,8.525-2.033,11.417-5.342c1.95-2.23,3.376-4.834,4.242-7.668c0.148-0.486,0.278-0.99,0.398-1.501
					c6.327,1.191,10.549-1.17,12.957-3.332c-0.346,2.487-0.176,5.111,0.192,7.42c0.6,3.763,2.319,7.279,4.864,10.106
					c3.569,3.965,8.626,6.105,13.711,5.809c0.925,0.214,1.917,0.278,2.905,0.194c5.398-0.461,10.258-3.686,12.936-8.384
					C216.04,76.016,213.287,60.601,201.293,58.611z"/>
			</g>
			<g>
				<path style="fill:#FFA68F;" d="M96.344,396.661l-5.233,33.024c0,0,5.443,9.274,15.544,4.667l11.57-32.425L96.344,396.661z"/>
				<g>
					<g>
						<path style="fill:#4252D4;" d="M109.359,428.451c0,0,9.861,9.99,14.201,11.786c4.34,1.796,10.817,4.974,10.455,9.81
							L84.83,437.191l6.202-12.744c0,0,8.316,8.723,13.736,5.931C104.767,430.377,106.47,426.854,109.359,428.451z"/>
					</g>
					<g>
						<path style="fill:#471006;" d="M103.856,442.142c-0.049,0-0.097-0.007-0.145-0.023c-0.24-0.081-0.37-0.341-0.29-0.581
							c0.611-1.827,1.711-3.136,3.272-3.891c2.115-1.024,4.594-0.8,6.175-0.48l-7.18-7.589c-0.174-0.185-0.166-0.475,0.018-0.649
							c0.185-0.176,0.475-0.166,0.649,0.018l8.293,8.766c0.146,0.154,0.167,0.389,0.05,0.567c-0.116,0.178-0.339,0.251-0.54,0.181
							c-0.041-0.015-4.072-1.436-7.069,0.014c-1.328,0.644-2.269,1.773-2.797,3.354
							C104.228,442.021,104.048,442.142,103.856,442.142z"/>
					</g>
					<g>
						<path style="fill:#FCD87A;" d="M134.016,450.047c0.239-3.193-2.507-5.66-5.648-7.486c-0.117,0.184-0.181,0.297-0.173,0.314
							c0,0-3.515-0.326-4.432,4.493L134.016,450.047z"/>
					</g>
					<g>
						<path style="fill:#471006;" d="M83.051,440l51.253,13.396c0.881,0.23,1.79-0.302,2.02-1.183l0,0
							c0.23-0.881-0.302-1.79-1.183-2.02l-51.253-13.396c-0.881-0.23-1.79,0.302-2.02,1.183l0,0
							C81.638,438.861,82.171,439.77,83.051,440z"/>
					</g>
				</g>
			</g>
			<g>
				<path style="fill:#FFA68F;" d="M176.311,406.997l9.972,31.915c0,0,8.994,5.894,16-2.718l-4.027-34.191L176.311,406.997z"/>
				<g>
					<g>
						<path style="fill:#4252D4;" d="M202.086,429.705c0,0,13.271,4.574,17.957,4.256c4.686-0.318,11.901-0.345,13.723,4.149
							l-49.78,10.316l-0.101-14.173c0,0,11.325,4.125,14.941-0.783C198.827,433.47,198.788,429.557,202.086,429.705z"/>
					</g>
					<g>
						<path style="fill:#471006;" d="M203.233,444.416c-0.043,0.021-0.09,0.036-0.14,0.044c-0.251,0.034-0.483-0.141-0.518-0.392
							c-0.264-1.909,0.141-3.57,1.204-4.939c1.441-1.857,3.762-2.756,5.32-3.171l-9.803-3.613c-0.238-0.088-0.36-0.352-0.272-0.59
							c0.087-0.24,0.352-0.36,0.59-0.272l11.322,4.173c0.199,0.073,0.322,0.275,0.297,0.486c-0.025,0.211-0.192,0.375-0.403,0.402
							c-0.044,0.005-4.287,0.521-6.328,3.151c-0.904,1.166-1.246,2.595-1.017,4.247
							C203.512,444.142,203.405,444.331,203.233,444.416z"/>
					</g>
					<g>
						<path style="fill:#FCD87A;" d="M233.767,438.11c-1.203-2.967-4.759-3.958-8.384-4.201c-0.023,0.216-0.03,0.347-0.015,0.358
							c0,0-3.294,1.268-1.977,5.993L233.767,438.11z"/>
					</g>
					<g>
						<path style="fill:#471006;" d="M183.64,451.732l51.873-10.749c0.892-0.185,1.47-1.065,1.285-1.957l0,0
							c-0.185-0.892-1.065-1.47-1.957-1.285l-51.873,10.749c-0.892,0.185-1.47,1.065-1.285,1.957l0,0
							C181.868,451.339,182.748,451.917,183.64,451.732z"/>
					</g>
				</g>
			</g>
			<g>
				<path style="fill:#FF957E;" d="M212.117,182.382c0.226,1.354,12.188,34.08,9.479,40.625
					c-2.708,6.545-33.388,34.109-33.388,34.109l-2.387-20.418c0,0,12.184-14.06,12.861-20.153
					c0.677-6.094-4.621-20.169-4.621-20.169L212.117,182.382z"/>
				<g>
					<path style="fill:#FCD87A;" d="M113.821,242.492l2.779-55.572l-32.232-11.115c0,0,17.577-51.612,61.201-50.5
						c0,0,6.269,11.305,20.452,0.719c0,0,41.44,2.267,50.054,54.783l-26.119,18.339l-3.334,45.014L113.821,242.492z"/>
					<g>
						<path style="fill:#471006;" d="M116.599,187.75c-0.11,0-0.223-0.022-0.331-0.069c-0.42-0.183-0.613-0.672-0.43-1.093
							l12.402-28.475c0.182-0.42,0.671-0.615,1.093-0.43c0.42,0.183,0.613,0.672,0.43,1.093l-12.402,28.475
							C117.225,187.564,116.92,187.75,116.599,187.75z"/>
					</g>
					<g>
						<path style="fill:#471006;" d="M189.955,199.977c-0.456,0-0.827-0.368-0.83-0.825l-0.248-36.25
							c-0.003-0.459,0.366-0.833,0.825-0.836c0.455-0.028,0.833,0.367,0.836,0.825l0.248,36.25c0.003,0.459-0.366,0.833-0.825,0.836
							H189.955z"/>
					</g>
				</g>
				<g>
					<g>
						<path style="fill:#2B0D06;" d="M184.432,208.232l-10.088-13.644c-1.278-1.728-0.913-4.166,0.816-5.443l31.507-23.294
							c1.728-1.278,4.166-0.913,5.443,0.816l10.087,13.644c1.278,1.729,0.913,4.166-0.816,5.443l-31.507,23.294
							C188.147,210.326,185.71,209.961,184.432,208.232z"/>
						<path style="fill:#FFFFFF;" d="M205.597,189.86c-3.161,2.337-7.619,1.669-9.956-1.492c-2.337-3.161-1.669-7.619,1.492-9.956
							c3.161-2.337,7.619-1.669,9.956,1.492C209.426,183.066,208.758,187.523,205.597,189.86z"/>
						<path style="fill:#FFFFFF;" d="M210.727,177.858l-4.924-6.661c-0.55-0.744-0.391-1.803,0.353-2.353l0,0
							c0.744-0.55,1.803-0.391,2.353,0.353l4.925,6.661c0.55,0.744,0.391,1.803-0.353,2.353l0,0
							C212.336,178.761,211.277,178.602,210.727,177.858z"/>
					</g>
					<g>
						<path style="fill:#FFA68F;" d="M90.243,176.062l-7.201,31.86c0,0-1.214,24.688,29.771,14.633l51.68-11.598l-2.226-12.243
							l-55.447,1.72l6.071-14.469L90.243,176.062z"/>
						<g>
							<g>
								<g>
									<path style="fill:#FFA68F;" d="M160.169,212.003c0,0,8.872-2.375,11.208-2.067c6.336,0.836,17.485,2.198,33.069-4.195
										c0,0,6.22-4.663,5.575-7.839c-0.645-3.176-4.038-4.464-4.038-4.464l-22.36,0.819c0,0,0.666-2.85,2.085-3.527
										c1.419-0.677,3.49-3.326,2.865-5.082c0,0-16.423,5.839-17.538,7.669c-1.114,1.831-1.465,3.642-4.553,4.163
										c-3.087,0.521-7.911,1.117-7.911,1.117S150.887,206.294,160.169,212.003z"/>
								</g>
							</g>
							<g>
								<g>
									<path style="fill:#EA735A;" d="M191.886,206.24c0.028,0.167,0.183,0.284,0.353,0.264
										c13.765-1.633,13.868-1.726,13.967-1.814c0.131-0.118,0.141-0.32,0.025-0.452c-0.092-0.102-0.235-0.132-0.355-0.084
										c-0.558,0.131-8.478,1.094-13.712,1.715c-0.175,0.021-0.3,0.18-0.28,0.355C191.884,206.23,191.885,206.235,191.886,206.24z
										"/>
								</g>
							</g>
							<g>
								<g>
									<path style="fill:#EA735A;" d="M192.067,202.44c0.028,0.169,0.186,0.286,0.357,0.263
										c17.406-2.307,17.419-2.336,17.52-2.561c0.07-0.162,0-0.35-0.162-0.422c-0.08-0.036-0.167-0.036-0.243-0.007
										c-0.613,0.138-10.585,1.48-17.199,2.357c-0.175,0.023-0.299,0.184-0.275,0.359
										C192.066,202.433,192.066,202.436,192.067,202.44z"/>
								</g>
							</g>
							<g>
								<g>
									<path style="fill:#EA735A;" d="M190.581,198.51c0.028,0.169,0.187,0.287,0.358,0.263l18.283-2.498
										c0.175-0.024,0.298-0.185,0.274-0.36c-0.025-0.175-0.185-0.297-0.36-0.273l-18.283,2.498
										c-0.175,0.024-0.297,0.185-0.273,0.36C190.58,198.504,190.581,198.507,190.581,198.51z"/>
								</g>
							</g>
						</g>
					</g>
				</g>
			</g>
			<g>
				<polygon style="fill:#3C4875;" points="186.621,244.16 206.451,422.047 176.442,427.048 150.874,280.935 116.396,423.334 
					85.831,416.666 113.821,242.492 				"/>
				<path style="fill:#FFA68F;" d="M124.4,346.185l-18.598-3.372c-2.316-0.42-3.867-2.658-3.448-4.975l0,0
					c0.42-2.316,2.658-3.867,4.974-3.447l18.598,3.372c2.316,0.42,3.867,2.658,3.448,4.975l0,0
					C128.955,345.054,126.717,346.605,124.4,346.185z"/>
				<path style="fill:#FFA68F;" d="M190.708,343.629l-18.734,2.514c-2.333,0.313-4.498-1.34-4.811-3.672l0,0
					c-0.313-2.333,1.34-4.498,3.672-4.811l18.734-2.514c2.333-0.313,4.498,1.339,4.811,3.672l0,0
					C194.694,341.151,193.041,343.316,190.708,343.629z"/>
				<g>
					<path style="fill:#471006;" d="M150.874,281.853c-0.507,0-0.918-0.411-0.918-0.918v-28.577c0-0.327,0.175-0.63,0.458-0.794
						c0.283-0.164,0.633-0.165,0.917-0.003c0.318,0.181,7.849,4.394,11.543-1.733c0.261-0.434,0.824-0.576,1.261-0.312
						c0.434,0.262,0.574,0.826,0.312,1.261c-3.24,5.371-9.079,4.586-12.655,3.059v27.098
						C151.792,281.442,151.382,281.853,150.874,281.853z"/>
				</g>
			</g>
		</g>
		<g>
			<path style="fill:#FF1A1A;" d="M318.998,112.15h-85.259c-5.998,0-10.905,4.907-10.905,10.905s4.907,10.905,10.905,10.905h1.874
				l4.075,16.977l6.99-16.977h72.32c5.998,0,10.905-4.907,10.905-10.905S324.996,112.15,318.998,112.15z"/>
			<path style="fill:#FFFFFF;" d="M243.394,122.712c0,2.991-2.424,5.415-5.415,5.415c-2.99,0-5.415-2.424-5.415-5.415
				c0-2.991,2.424-5.415,5.415-5.415C240.969,117.297,243.394,119.721,243.394,122.712z"/>
			<path style="fill:#FFFFFF;" d="M318.767,122.712c0,2.991-2.424,5.415-5.415,5.415s-5.415-2.424-5.415-5.415
				c0-2.991,2.424-5.415,5.415-5.415S318.767,119.721,318.767,122.712z"/>
			<path style="fill:#FFFFFF;" d="M292.006,122.712c0,2.991-2.424,5.415-5.415,5.415s-5.415-2.424-5.415-5.415
				c0-2.991,2.424-5.415,5.415-5.415S292.006,119.721,292.006,122.712z"/>
			<path style="fill:#FFFFFF;" d="M266.556,122.712c0,2.991-2.424,5.415-5.415,5.415s-5.415-2.424-5.415-5.415
				c0-2.991,2.424-5.415,5.415-5.415S266.556,119.721,266.556,122.712z"/>
		</g>
	</g>
	<g>
		<g>
			<path style="fill:#AA6E2D;" d="M456.468,388.062c-2.198,60.656-42.917,66.862-95.336,66.862s-98.28,2.585-94.913-66.671
				c1.788-36.778,42.494-66.671,94.913-66.671S457.801,351.265,456.468,388.062z"/>
			<path style="fill:#471006;" d="M437.564,410.202c-16.014-2.176-32.247-1.778-48.183,0.858
				c-15.847,2.621-31.317,7.482-45.82,14.385c-8.191,3.899-16.003,8.449-23.301,13.839c-0.75,0.554,0.181,1.834,0.967,1.325
				c13.386-8.67,27.595-15.971,42.758-20.989c15.08-4.99,30.8-7.867,46.666-8.568c8.955-0.396,17.954-0.114,26.866,0.845
				C438.613,412.013,438.627,410.346,437.564,410.202z"/>
			<path style="fill:#471006;" d="M356.748,419.436c-4.07-3.615-8.786-6.572-13.45-9.356c-4.673-2.789-9.495-5.317-14.454-7.56
				c-10.024-4.533-20.886-8.5-31.892-9.617c-6.316-0.641-12.82-0.222-18.763,2.14c-1.377,0.547-0.497,2.614,0.887,2.116
				c10.58-3.807,21.971-1.961,32.445,1.281c10.092,3.123,19.814,7.4,28.985,12.638c5.236,2.991,10.092,6.513,15.157,9.765
				C356.622,421.46,357.61,420.203,356.748,419.436z"/>
		</g>
		<g>
			<g>
				<path style="fill:#FFD199;" d="M395.891,273.922L395.891,273.922c5.346,0.976,10.517-2.6,11.493-7.945l4.146-22.716
					c0.976-5.346-2.6-10.518-7.945-11.493l0,0c-5.346-0.976-10.518,2.6-11.493,7.945l-4.146,22.716
					C386.97,267.775,390.546,272.947,395.891,273.922z"/>
				<path style="fill:#FFB76B;" d="M399.895,247.866c3.74,0.683,7.485,0.217,11.012-1.189v0c0,0-11.008,13.921-22.626,13.912
					l3.036-16.632C393.833,245.923,396.717,247.286,399.895,247.866z"/>
				<g>
					<g>
						<g>
							<path style="fill:#FFB76B;" d="M375.396,217.187c-0.559,3.064,1.152,5.943,3.822,6.43c2.67,0.487,5.288-1.601,5.847-4.665
								c0.559-3.064-1.152-5.943-3.822-6.43C378.573,212.035,375.955,214.124,375.396,217.187z"/>
						</g>
					</g>
					<g>
						<g>
							<path style="fill:#FFD199;" d="M434.772,228.024c-0.559,3.064-3.177,5.152-5.848,4.665c-2.67-0.487-4.382-3.366-3.822-6.43
								c0.559-3.064,3.177-5.152,5.847-4.665C433.62,222.081,435.331,224.96,434.772,228.024z"/>
						</g>
					</g>
					<g>
						<g>
							<path style="fill:#310B02;" d="M380.723,215.017c-0.044-0.137-0.183-0.206-0.308-0.153c-0.126,0.052-0.194,0.205-0.151,0.341
								c0.008,0.024,0.753,2.418-0.18,4.313c-0.284,0.578-0.713,1.039-1.252,1.408c-0.609-1.761,0.981-2.857,1.052-2.905
								c0.116-0.077,0.155-0.24,0.089-0.364c-0.067-0.124-0.214-0.162-0.331-0.085c-0.021,0.015-2.062,1.41-1.236,3.626
								c-0.273,0.143-0.567,0.266-0.891,0.364c-0.13,0.04-0.21,0.186-0.178,0.326c0.023,0.102,0.099,0.173,0.188,0.19
								c0.034,0.006,0.069,0.005,0.105-0.006c1.357-0.41,2.326-1.19,2.879-2.315C381.544,217.655,380.758,215.124,380.723,215.017z"
								/>
						</g>
					</g>
					<g>
						<path style="fill:#310B02;" d="M430.555,224.112c0.089-0.112,0.244-0.128,0.342-0.034c0.1,0.094,0.11,0.26,0.02,0.372
							c-0.016,0.02-1.558,1.996-1.355,4.098c0.062,0.641,0.3,1.224,0.674,1.759c1.192-1.433,0.092-3.019,0.042-3.089
							c-0.081-0.113-0.06-0.28,0.046-0.372c0.106-0.092,0.258-0.076,0.34,0.037c0.015,0.021,1.431,2.047-0.125,3.829
							c0.205,0.23,0.437,0.449,0.705,0.655c0.108,0.083,0.131,0.248,0.051,0.368c-0.058,0.087-0.154,0.127-0.243,0.111
							c-0.034-0.006-0.067-0.02-0.096-0.043c-1.124-0.863-1.755-1.934-1.876-3.183C428.855,226.29,430.485,224.2,430.555,224.112z"
							/>
					</g>
					<g>
						<g>
							
								<ellipse transform="matrix(0.1795 -0.9838 0.9838 0.1795 118.0073 577.6782)" style="fill:#FFD199;" cx="405.329" cy="218.092" rx="30.662" ry="24.681"/>
						</g>
					</g>
					<g>
						<g>
							<g>
								<path style="fill:#FFB76B;" d="M393.469,225.99c0.237-1.301,1.376-2.182,2.543-1.969c1.167,0.213,1.921,1.44,1.684,2.741
									L393.469,225.99z"/>
							</g>
						</g>
						<g>
							<g>
								<path style="fill:#310B02;" d="M397.297,225.507c0.061,0.011,0.126-0.003,0.182-0.046c0.112-0.085,0.142-0.25,0.067-0.369
									c-0.359-0.576-0.905-0.959-1.536-1.08c-0.006-0.001-0.013-0.003-0.013-0.003c-0.632-0.115-1.267,0.043-1.795,0.446
									c-0.112,0.085-0.142,0.25-0.067,0.369c0.074,0.119,0.225,0.147,0.336,0.061c0.424-0.323,0.931-0.429,1.44-0.352
									c0.505,0.096,0.942,0.404,1.231,0.866C397.18,225.459,397.236,225.496,397.297,225.507z"/>
							</g>
						</g>
						<g>
							<g>
								<path style="fill:#310B02;" d="M406.714,223.222c-0.209,1.146,0.09,2.161,0.669,2.266c0.579,0.106,1.217-0.738,1.426-1.884
									c0.209-1.146-0.09-2.161-0.669-2.266C407.561,221.232,406.923,222.075,406.714,223.222z"/>
							</g>
						</g>
						<g>
							<g>
								<path style="fill:#310B02;" d="M385.179,219.291c-0.209,1.146,0.09,2.161,0.669,2.266c0.579,0.106,1.217-0.738,1.427-1.884
									c0.209-1.146-0.09-2.161-0.669-2.266C386.027,217.302,385.388,218.145,385.179,219.291z"/>
							</g>
						</g>
						<g>
							<g>
								<path style="fill:#FF8F7F;" d="M402.903,229.183c-0.311,1.706,1.439,3.456,3.911,3.906c2.471,0.451,4.727-0.567,5.039-2.273
									c0.311-1.706-1.44-3.455-3.911-3.906C405.47,226.458,403.215,227.476,402.903,229.183z"/>
							</g>
						</g>
						<g>
							<g>
								<path style="fill:#FF8F7F;" d="M379.872,224.979c-0.311,1.707,1.44,3.456,3.911,3.907c2.471,0.451,4.727-0.566,5.039-2.273
									c0.311-1.706-1.44-3.455-3.911-3.906C382.44,222.255,380.184,223.273,379.872,224.979z"/>
							</g>
						</g>
						<g>
							<g>
								<path style="fill:#2B0D06;" d="M412.029,220.131c0.131,0.024,0.271-0.011,0.386-0.109c0.215-0.183,0.258-0.516,0.098-0.744
									c-2.862-4.063-6.516-1.194-6.552-1.165c-0.218,0.176-0.271,0.506-0.117,0.739c0.154,0.234,0.457,0.279,0.675,0.106
									c0.119-0.095,2.928-2.271,5.217,0.982C411.81,220.046,411.916,220.111,412.029,220.131z"/>
							</g>
						</g>
						<g>
							<g>
								<path style="fill:#2B0D06;" d="M389.886,216.09c0.13,0.024,0.271-0.011,0.386-0.109c0.214-0.183,0.258-0.516,0.098-0.744
									c-2.862-4.064-6.516-1.194-6.552-1.165c-0.218,0.176-0.27,0.506-0.117,0.739c0.154,0.234,0.456,0.279,0.675,0.106
									c0.119-0.095,2.927-2.271,5.217,0.982C389.667,216.005,389.772,216.069,389.886,216.09z"/>
							</g>
						</g>
						<g>
							<g>
								<path style="fill:#FFFFFF;" d="M389.891,229.231c0,0,3.764,5.489,10.434,1.904L389.891,229.231z"/>
							</g>
						</g>
					</g>
				</g>
				<path style="fill:#2B0D06;" d="M376.27,196.747c1.174-2.307,3.411-4.074,5.905-4.75c1.472-0.399,2.945-0.493,4.461-0.35
					c0.632,0.059,1.258,0.174,1.872,0.333c0.24,0.063,0.476,0.142,0.712,0.218c0.074-0.295,0.147-0.577,0.213-0.765
					c0.286-0.811,0.68-1.553,1.149-2.273c0.928-1.422,2.127-2.639,3.523-3.608c2.761-1.916,6.157-2.887,9.471-3.24
					c6.744-0.718,13.629,1.389,18.822,5.743c2.221,1.862,4.042,4.081,5.493,6.554c0.417-0.437,0.836-0.873,1.269-1.298
					c1.784-1.75,4.264,0.425,2.966,2.461c1.232,0.292,2.417,0.841,3.492,1.642c2.292,1.708,3.686,4.468,4.321,7.2
					c0.485,2.089,0.631,4.287,0.393,6.434c-2.369,10.248-12.61,10.118-12.61,10.118c-2.117-1.278-3.532-3.33-4.472-5.58
					c-1.402-3.355-1.956-7.325-1.588-11.097c-2.199,1.237-4.506,2.294-6.871,3.152c-7.362,2.672-15.326,3.542-23.119,3.541
					c-4.179,0-8.822,0.152-12.095-2.88c-0.019-0.017-0.03-0.036-0.048-0.054c-1.308-0.993-2.409-2.233-3.162-3.737
					C375.167,202.117,375.041,199.162,376.27,196.747z"/>
			</g>
			<g>
				<path style="fill:#E06363;" d="M388.47,262.937c0,0-12.064-6.607-22.979,11.777c-10.915,18.383-17.809,37.628-17.809,37.628
					l-23.266,3.16l5.17,18.096l12.926,2.298C342.513,335.895,387.697,262.558,388.47,262.937z"/>
				<path style="fill:#FA7C77;" d="M388.47,262.937c-0.774-0.379-45.958,72.958-45.958,72.958l82.437,18.096
					c0,0,19.101-7.181,18.096-25.277c-1.005-18.096-2.809-52.096-4.676-59.708c-1.867-7.612-17.8-16.904-29.099-9.371
					C398.419,266.869,395.508,266.384,388.47,262.937z"/>
				<g>
					<path style="fill:#471006;" d="M397.663,325.532c-0.316,0-0.617-0.178-0.76-0.482c-0.197-0.42-0.017-0.919,0.402-1.117
						l9.401-4.424l8.236-34.363c0.109-0.45,0.556-0.724,1.012-0.62c0.451,0.108,0.729,0.561,0.62,1.012l-8.33,34.755
						c-0.06,0.247-0.229,0.455-0.459,0.564l-9.766,4.596C397.904,325.506,397.783,325.532,397.663,325.532z"/>
				</g>
				<g>
					<path style="fill:#471006;" d="M424.951,337.309c-0.048,0-0.098-0.004-0.147-0.013c-0.455-0.08-0.759-0.512-0.682-0.966
						c0.021-0.137,1.208-9.199-16.967-15.438c-0.438-0.151-0.671-0.629-0.521-1.067c0.151-0.438,0.624-0.669,1.067-0.521
						c19.697,6.763,18.15,16.885,18.075,17.313C425.704,337.023,425.35,337.309,424.951,337.309z"/>
				</g>
			</g>
			<g>
				<path style="fill:#FFBA3D;" d="M295.139,391.464c0,0-15.277,2.078-23.909-0.052c-8.631-2.13-25.858-0.733-24.437,12.555
					c1.906,17.823,55.376,4.035,55.376,4.035L295.139,391.464z"/>
				<path style="fill:#FCD87A;" d="M261.355,390.713c-7.766,0.634-15.534,4.156-14.562,13.254c0.691,6.461,8.159,8.766,17.399,9.082
					c0.099-0.195,0.2-0.383,0.297-0.582C270.918,399.283,262.262,391.48,261.355,390.713z"/>
				<path style="fill:#FFBA3D;" d="M367.773,390.183c-1.863-0.934-4.038-1.027-6-0.327c-4.282,1.529-13.196,3.947-18.464-0.046
					c-7.121-5.398-26.301-12.404-31.239-0.23c-4.889,12.053,32.549,32.436,56.032,14.116c0.564-0.44,1.057-0.963,1.475-1.543
					C371.288,399.783,374.724,393.669,367.773,390.183z"/>
				<path style="fill:#FCD87A;" d="M322.758,404.67c9.763-6.878,9.763-20.191,9.763-20.191l0.014-0.031
					c-8.023-2.587-17.253-2.783-20.464,5.133c-1.924,4.742,2.708,10.774,10.462,15.231
					C322.608,404.761,322.683,404.723,322.758,404.67z"/>
				<path style="fill:#FCD87A;" d="M367.773,390.183c-0.722-0.362-1.491-0.594-2.275-0.706c-1.927,2.776-3.63,7.805,4.461,12.125
					C371.719,398.938,374.237,393.426,367.773,390.183z"/>
			</g>
			<g>
				<polygon style="fill:#A38888;" points="306.394,322.638 257.934,324.494 357.312,337.469 369.356,331.261 				"/>
				<polygon style="fill:#91A7CA;" points="329.587,333.597 316.087,287.352 247.437,291.661 257.934,324.494 				"/>
				<path style="fill:#FFFFFF;" d="M297.151,312.553c0,5.347-4.334,9.681-9.681,9.681c-5.347,0-9.681-4.334-9.681-9.681
					c0-5.347,4.334-9.681,9.681-9.681C292.816,302.872,297.151,307.207,297.151,312.553z"/>
			</g>
			<g>
				<path style="fill:#4252D4;" d="M358.02,337.29c0,0,55.756-36.79,66.724,14.625c10.968,51.414-35.876,76.321-63.296,38.846
					l-57.788,19.819l-9.621-21.647l4.57-3.199c0,0-71.066-24.45-40.674-61.24L358.02,337.29z"/>
				<g>
					<path style="fill:none;stroke:#56170E;stroke-width:2;stroke-linecap:round;stroke-linejoin:round;stroke-miterlimit:10;" d="
						M404.179,364.711"/>
				</g>
				<g>
					<path style="fill:#471006;" d="M353.45,393.429c-0.342,0-0.665-0.212-0.788-0.552c-0.159-0.436,0.066-0.918,0.501-1.076
						l58.955-21.48c0.438-0.158,0.918,0.066,1.076,0.501c0.159,0.436-0.065,0.918-0.501,1.076l-58.955,21.48
						C353.643,393.412,353.545,393.429,353.45,393.429z"/>
				</g>
				<g>
					<path style="fill:#471006;" d="M384.049,382.784c-0.456,0-0.83-0.365-0.839-0.823c-0.009-0.463,0.359-0.846,0.823-0.856
						l22.85-0.457c0.005,0,0.011,0,0.016,0c0.456,0,0.83,0.365,0.839,0.823c0.009,0.463-0.359,0.846-0.823,0.856l-22.85,0.457
						H384.049z"/>
				</g>
				<g>
					<path style="fill:#471006;" d="M322.63,366.524c-0.166,0-0.334-0.049-0.48-0.151l-36.561-25.593
						c-0.38-0.266-0.472-0.789-0.206-1.169c0.266-0.38,0.788-0.473,1.169-0.206l36.561,25.593c0.38,0.266,0.472,0.789,0.206,1.169
						C323.156,366.399,322.895,366.524,322.63,366.524z"/>
				</g>
				<g>
					<path style="fill:#471006;" d="M298.609,386.573c-0.244,0-0.485-0.106-0.651-0.309c-0.293-0.359-0.238-0.888,0.12-1.181
						l59.411-48.444c0.361-0.293,0.888-0.237,1.181,0.121c0.293,0.359,0.238,0.887-0.12,1.181l-59.411,48.443
						C298.983,386.512,298.795,386.573,298.609,386.573z"/>
				</g>
			</g>
		</g>
		<g>
			<g>
				<path style="fill:#FD807B;" d="M342.314,235.596l-15.969,21.042c-1.405,1.851-4.044,2.213-5.895,0.808l-12.64-9.593
					c-1.851-1.405-2.213-4.044-0.808-5.895l15.969-21.042c1.405-1.851,4.044-2.213,5.895-0.808l12.64,9.593
					C343.357,231.105,343.719,233.745,342.314,235.596z"/>
				<path style="fill:#FEDEC4;" d="M327.553,214.969c-0.505-0.041-0.948,0.335-0.989,0.841l-1.926,23.765l-22.371,8.25
					c-0.477,0.176-0.72,0.703-0.544,1.179c0.176,0.476,0.703,0.72,1.179,0.544l22.664-8.358c0.171-0.063,0.311-0.171,0.413-0.306
					c0.048-0.063,0.086-0.131,0.116-0.204c0.061-0.048,0.117-0.104,0.165-0.166c0.102-0.135,0.168-0.299,0.183-0.48l1.952-24.076
					C328.436,215.453,328.059,215.011,327.553,214.969z"/>
			</g>
			<g>
				<path style="fill:#FFC646;" d="M272.244,280.554l-14.047-22.37c-1.236-1.968-0.642-4.565,1.326-5.801l13.438-8.438
					c1.968-1.236,4.565-0.642,5.801,1.326l14.047,22.37c1.236,1.968,0.642,4.565-1.326,5.801l-13.438,8.438
					C276.077,283.115,273.48,282.522,272.244,280.554z"/>
				<path style="fill:#FEDEC4;" d="M296.754,274.027c0.217-0.458,0.021-1.005-0.437-1.222l-21.554-10.194l0.181-23.843
					c0.004-0.508-0.403-0.922-0.911-0.925c-0.507-0.003-0.921,0.404-0.925,0.911l-0.183,24.155c-0.001,0.182,0.05,0.351,0.14,0.494
					c0.042,0.067,0.092,0.127,0.15,0.18c0.024,0.075,0.056,0.146,0.098,0.213c0.09,0.143,0.22,0.263,0.384,0.341l21.836,10.327
					C295.99,274.682,296.537,274.486,296.754,274.027z"/>
			</g>
			<g>
				<path style="fill:#4252D4;" d="M286.804,230.279l-20.255-16.955c-1.782-1.492-2.017-4.145-0.526-5.927l10.185-12.167
					c1.492-1.782,4.145-2.017,5.927-0.526l20.255,16.955c1.782,1.492,2.017,4.145,0.526,5.927l-10.185,12.168
					C291.24,231.535,288.586,231.77,286.804,230.279z"/>
				<path style="fill:#FEDEC4;" d="M308.112,216.519c0.066-0.503-0.29-0.963-0.793-1.028l-23.646-3.059l-7.173-22.739
					c-0.153-0.485-0.668-0.753-1.152-0.599c-0.484,0.153-0.752,0.668-0.599,1.152l7.267,23.037c0.055,0.173,0.155,0.318,0.285,0.427
					c0.06,0.051,0.127,0.092,0.198,0.126c0.045,0.064,0.098,0.122,0.158,0.173c0.13,0.109,0.29,0.182,0.471,0.206l23.955,3.099
					C307.587,217.378,308.047,217.022,308.112,216.519z"/>
			</g>
		</g>
	</g>
	<g>
		<g>
			<path style="fill:#846E6E;" d="M611.616,339.925c-2.008,0-3.651,1.643-3.651,3.651v54.587c-0.196-0.048-0.398-0.081-0.608-0.081
				h-75.749v-54.506c0-2.008-1.643-3.651-3.651-3.651l0,0c-2.008,0-3.651,1.643-3.651,3.651v87.613c0,2.008,1.643,3.651,3.651,3.651
				l0,0c2.008,0,3.651-1.643,3.651-3.651v-27.947h75.749c0.21,0,0.412-0.033,0.608-0.081v28.027c0,2.008,1.643,3.651,3.651,3.651
				s3.651-1.643,3.651-3.651v-87.613C615.267,341.568,613.624,339.925,611.616,339.925z"/>
			<path style="fill:#FFFFFF;" d="M618.994,341.965c-2.362,0-4.294,1.932-4.294,4.294v64.215c-0.231-0.057-0.468-0.095-0.716-0.095
				h-89.11v-64.12c0-2.362-1.932-4.294-4.294-4.294l0,0c-2.362,0-4.295,1.932-4.295,4.294v103.067c0,2.362,1.932,4.294,4.295,4.294
				l0,0c2.362,0,4.294-1.932,4.294-4.294V416.45h89.11c0.247,0,0.485-0.038,0.716-0.095v32.971c0,2.362,1.932,4.294,4.294,4.294
				c2.362,0,4.295-1.932,4.295-4.294V346.259C623.289,343.897,621.356,341.965,618.994,341.965z"/>
			<path style="fill:#4252D4;" d="M507.861,326.475h111.013c5.109,0,9.288,4.18,9.288,9.288v0c0,5.109-4.18,9.288-9.288,9.288
				H507.861c-5.109,0-9.289-4.18-9.289-9.288v0C498.572,330.655,502.752,326.475,507.861,326.475z"/>
		</g>
		<g>
			<g>
				<g>
					<path style="fill:#FCD87A;" d="M611.732,269.638c1.983,0.22,21.593,29.966,7.051,56.846h-81.965l-23.355,44.508l-29.966-17.186
						l41.423-75.796c0,0,4.847-23.576,38.338-6.61v-2.469L611.732,269.638z"/>
					<path style="fill:#FCD87A;" d="M583.529,326.043c0-1.322-18.068-27.322-18.068-27.322s-31.288-11.017-31.288,16.745
						c0,27.762,0.441,71.389,0.441,71.389h32.61l0.661-60.813H583.529z"/>
					<g>
						<path style="fill:#471006;" d="M567.885,326.882c-0.464,0-0.839-0.375-0.839-0.839v-9.98c0-0.464,0.375-0.839,0.839-0.839
							c0.464,0,0.839,0.375,0.839,0.839v9.98C568.725,326.507,568.349,326.882,567.885,326.882z"/>
					</g>
					<g>
						<path style="fill:#471006;" d="M609.293,289.836c-0.105,0-0.211-0.02-0.315-0.061c-17.048-6.89-42.999-17.148-45.554-17.552
							c-0.185,0.035-1.124-0.82-0.901-1.226c0.492-0.891,0.634-1.165,24.229,8.112c11.324,4.452,22.741,9.064,22.855,9.111
							c0.429,0.173,0.637,0.662,0.463,1.093C609.938,289.638,609.625,289.836,609.293,289.836z M563.993,271.806L563.993,271.806
							C563.993,271.806,563.993,271.806,563.993,271.806z M563.994,271.805C563.994,271.805,563.994,271.805,563.994,271.805
							S563.994,271.805,563.994,271.805z"/>
					</g>
					<path style="fill:none;stroke:#122C35;stroke-width:2;stroke-linecap:round;stroke-linejoin:round;stroke-miterlimit:10;" d="
						M608.755,277.702"/>
					<g>
						<path style="fill:#471006;" d="M610.907,278.272c0,0-0.019,0-0.028-0.001l-33.616-1.076c-0.463-0.015-0.827-0.402-0.811-0.865
							c0.014-0.463,0.417-0.855,0.865-0.811l33.616,1.076c0.463,0.015,0.827,0.402,0.811,0.865
							C611.731,277.914,611.358,278.272,610.907,278.272z"/>
					</g>
					<g>
						<path style="fill:#471006;" d="M534.198,328.447c-0.414,0-0.774-0.306-0.831-0.726c-0.089-0.654-2.064-16.092,7.211-23.986
							c5.945-5.061,15.085-5.76,27.159-2.086c0.034,0.011,0.069,0.024,0.102,0.039l49.348,22.326c0.422,0.191,0.61,0.688,0.419,1.11
							c-0.191,0.422-0.687,0.61-1.11,0.419l-49.298-22.304c-11.468-3.479-20.053-2.884-25.526,1.77
							c-8.577,7.293-6.661,22.335-6.641,22.486c0.061,0.459-0.261,0.882-0.72,0.944
							C534.273,328.444,534.234,328.447,534.198,328.447z"/>
					</g>
				</g>
				<g>
					<path style="fill:#2B0D06;" d="M667.471,212.57c-3.262-15.258-18.521-22.44-29.501-31.511
						c-2.891-2.388-5.639-5.009-7.871-8.035c-2.248-3.048-3.876-6.463-5.081-10.044c-2.398-7.124-3.293-14.652-5.656-21.786
						c-1.137-3.432-2.617-6.761-4.666-9.751c-0.039-0.057-0.084-0.11-0.123-0.167c-3.877-6.154-12.262-15.132-28.153-15.01
						c-16.369,0.125-27.054,17.702-32.24,29.013c-1.336,2.752-2.476,5.598-3.416,8.506c-0.18,0.533-0.273,0.83-0.273,0.83
						c-1.151,3.728-1.955,7.602-2.035,11.514c-0.078,3.836,0.68,7.575,1.858,11.211c1.202,3.711,2.729,7.308,4.007,10.993
						c1.249,3.605,2.338,7.286,2.937,11.06c0.585,3.686,0.664,7.508-0.178,11.161c-0.826,3.586-2.673,6.675-4.398,9.88
						c-1.596,2.965-2.942,6.082-2.991,9.504c-0.049,3.434,1.069,6.838,2.84,9.755c3.657,6.025,9.987,9.842,16.196,12.796
						c6.688,3.181,77.055,10.684,87.346,0.67c4.879-4.747,7.981-11.063,9.832-17.548c0.98-3.433,1.615-6.959,1.985-10.508
						C668.326,220.936,668.35,216.684,667.471,212.57z"/>
					<g>
						<path style="fill:#E2A052;" d="M588.791,205.736L588.791,205.736c5.434,0,9.88-4.446,9.88-9.88v-23.091
							c0-5.434-4.446-9.88-9.88-9.88l0,0c-5.434,0-9.88,4.446-9.88,9.88v23.091C578.911,201.29,583.357,205.736,588.791,205.736z"/>
						<path style="fill:#AA6E2D;" d="M588.052,179.385c3.802,0,7.402-1.131,10.619-3.147v0c0,0-8.33,15.671-19.76,17.748v-16.907
							C581.739,178.561,584.821,179.385,588.052,179.385z"/>
						<g>
							<g>
								<g>
									<path style="fill:#AA6E2D;" d="M558.443,153.603c0,3.115,2.2,5.639,4.915,5.639c2.714,0,4.915-2.524,4.915-5.639
										c0-3.114-2.201-5.639-4.915-5.639C560.643,147.964,558.443,150.488,558.443,153.603z"/>
								</g>
							</g>
							<g>
								<g>
									<path style="fill:#E2A052;" d="M618.799,153.603c0,3.115-2.201,5.639-4.915,5.639c-2.714,0-4.915-2.524-4.915-5.639
										c0-3.114,2.201-5.639,4.915-5.639C616.599,147.964,618.799,150.488,618.799,153.603z"/>
								</g>
							</g>
							<g>
								<g>
									<path style="fill:#310B02;" d="M563.294,150.511c-0.068-0.126-0.217-0.17-0.331-0.095
										c-0.115,0.074-0.154,0.236-0.087,0.363c0.012,0.022,1.174,2.244,0.597,4.275c-0.176,0.619-0.515,1.15-0.979,1.61
										c-0.915-1.624,0.452-2.986,0.513-3.046c0.1-0.097,0.109-0.264,0.022-0.374c-0.088-0.11-0.24-0.121-0.341-0.024
										c-0.018,0.018-1.775,1.757-0.565,3.789c-0.243,0.189-0.51,0.364-0.811,0.518c-0.121,0.062-0.173,0.22-0.117,0.353
										c0.041,0.096,0.128,0.153,0.219,0.153c0.034,0,0.069-0.008,0.102-0.025c1.261-0.647,2.074-1.588,2.417-2.794
										C564.575,152.959,563.346,150.61,563.294,150.511z"/>
								</g>
							</g>
							<g>
								<path style="fill:#310B02;" d="M613.948,150.511c0.068-0.126,0.217-0.17,0.331-0.095c0.115,0.074,0.155,0.236,0.087,0.363
									c-0.012,0.022-1.174,2.244-0.597,4.275c0.176,0.619,0.515,1.15,0.979,1.61c0.915-1.624-0.452-2.986-0.513-3.046
									c-0.1-0.097-0.109-0.264-0.022-0.374c0.088-0.11,0.24-0.121,0.341-0.024c0.018,0.018,1.775,1.757,0.565,3.789
									c0.243,0.189,0.511,0.364,0.811,0.518c0.121,0.062,0.173,0.22,0.117,0.353c-0.041,0.096-0.129,0.153-0.219,0.153
									c-0.035,0-0.07-0.008-0.103-0.025c-1.261-0.647-2.074-1.588-2.417-2.794C612.667,152.959,613.896,150.61,613.948,150.511z"
									/>
							</g>
							<g>
								<g>
									<ellipse style="fill:#E2A052;" cx="588.052" cy="149.119" rx="24.681" ry="30.662"/>
								</g>
							</g>
							<g>
								<g>
									<g>
										<path style="fill:#AA6E2D;" d="M577.802,159.018c0-1.322,0.962-2.394,2.149-2.394c1.187,0,2.148,1.072,2.148,2.394
											H577.802z"/>
									</g>
								</g>
								<g>
									<g>
										<path style="fill:#310B02;" d="M581.481,157.855c0.062,0,0.124-0.026,0.171-0.078c0.094-0.104,0.094-0.272,0-0.375
											c-0.457-0.502-1.063-0.781-1.705-0.786l-0.013-0.001c-0.643,0-1.239,0.27-1.686,0.761c-0.095,0.104-0.095,0.272,0,0.375
											c0.094,0.104,0.247,0.104,0.342,0c0.359-0.394,0.839-0.589,1.353-0.605c0.514,0.004,1,0.228,1.367,0.631
											C581.358,157.829,581.419,157.855,581.481,157.855z"/>
									</g>
								</g>
								<g>
									<g>
										<path style="fill:#310B02;" d="M590.335,153.916c0,1.165,0.477,2.11,1.065,2.11c0.588,0,1.065-0.945,1.065-2.11
											s-0.477-2.109-1.065-2.109C590.811,151.807,590.335,152.751,590.335,153.916z"/>
									</g>
								</g>
								<g>
									<g>
										<path style="fill:#310B02;" d="M568.444,153.916c0,1.165,0.477,2.11,1.065,2.11s1.065-0.945,1.065-2.11
											s-0.477-2.109-1.065-2.109S568.444,152.751,568.444,153.916z"/>
									</g>
								</g>
								<g>
									<g>
										<path style="fill:#FF8F7F;" d="M587.656,160.464c0,1.735,2.036,3.141,4.549,3.141c2.512,0,4.549-1.406,4.549-3.141
											c0-1.734-2.037-3.141-4.549-3.141C589.693,157.324,587.656,158.73,587.656,160.464z"/>
									</g>
								</g>
								<g>
									<g>
										<path style="fill:#FF8F7F;" d="M564.245,160.464c0,1.735,2.036,3.141,4.549,3.141c2.512,0,4.549-1.406,4.549-3.141
											c0-1.734-2.037-3.141-4.549-3.141C566.282,157.324,564.245,158.73,564.245,160.464z"/>
									</g>
								</g>
								<g>
									<g>
										<path style="fill:#2B0D06;" d="M595.009,149.922c0.133,0,0.265-0.06,0.36-0.177c0.178-0.218,0.161-0.554-0.038-0.749
											c-3.545-3.483-6.624-0.005-6.654,0.03c-0.183,0.212-0.175,0.547,0.018,0.749c0.193,0.203,0.5,0.193,0.683-0.017
											c0.1-0.115,2.472-2.76,5.308,0.029C594.779,149.877,594.894,149.922,595.009,149.922z"/>
									</g>
								</g>
								<g>
									<g>
										<path style="fill:#2B0D06;" d="M572.5,149.922c0.133,0,0.265-0.06,0.36-0.177c0.178-0.218,0.161-0.554-0.038-0.749
											c-3.546-3.484-6.624-0.005-6.655,0.03c-0.183,0.212-0.175,0.546,0.018,0.749c0.194,0.203,0.499,0.193,0.683-0.017
											c0.1-0.115,2.472-2.76,5.309,0.029C572.269,149.877,572.385,149.922,572.5,149.922z"/>
									</g>
								</g>
								<g>
									<g>
										<path style="fill:#FFFFFF;" d="M574.865,162.849c0,0,4.688,4.724,10.606,0H574.865z"/>
									</g>
								</g>
							</g>
						</g>
						<path style="fill:#2B0D06;" d="M587.844,117.779c-11.096,0-20.493,9.118-23.724,21.718c1.942-0.74,15.723-6.185,19.512-13.172
							c0,0,2.251,10.555,14.759,10.835c0,0-1.465,7.18,7.78,11.099c2.733,1.159,4.939,0.915,6.577-0.267
							C612.274,131.206,601.309,117.779,587.844,117.779z"/>
						<path style="fill:#471006;" d="M577.021,122.925c-0.839,1.953-1.697,3.811-2.952,5.543c-0.592,0.817-1.219,1.603-1.908,2.34
							c-0.732,0.783-1.589,1.477-2.249,2.318c-0.444,0.566,0.091,1.32,0.772,1c0.988-0.464,1.837-1.308,2.589-2.089
							c0.776-0.807,1.505-1.671,2.148-2.587c1.246-1.775,2.389-3.846,2.971-5.947C578.612,122.712,577.365,122.125,577.021,122.925z
							"/>
						<path style="fill:#471006;" d="M598.533,134.068c-0.369-0.551-1.134-0.6-1.716-0.842c-0.563-0.234-1.055-0.546-1.567-0.869
							c-1.053-0.664-1.996-1.458-2.802-2.41c-1.554-1.836-2.624-4.365-2.682-6.781c-0.018-0.767-1.114-0.746-1.177,0
							c-0.248,2.925,0.663,5.639,2.488,7.925c0.88,1.103,1.963,2.085,3.192,2.786c0.606,0.346,1.311,0.613,1.974,0.83
							c0.59,0.193,1.502,0.567,2.07,0.202C598.579,134.739,598.725,134.355,598.533,134.068z"/>
						<path style="fill:#471006;" d="M608.018,143.584c-0.331-0.44-0.76-0.428-1.249-0.584c-0.41-0.13-0.721-0.352-1.066-0.598
							c-0.732-0.521-1.304-1.173-1.705-1.979c-0.988-1.987-0.636-4.41-0.027-6.449c0.067-0.225,0.004-0.539-0.184-0.694
							c-0.132-0.109-0.262-0.22-0.446-0.212c-0.019,0.001-0.039,0.002-0.058,0.003c-0.332,0.015-0.583,0.214-0.688,0.524
							c-0.854,2.514-1.347,5.328-0.131,7.811c0.489,1,1.284,1.972,2.247,2.551c0.434,0.261,0.995,0.454,1.491,0.562
							c0.526,0.115,1.329,0.282,1.722-0.196C608.079,144.132,608.188,143.81,608.018,143.584z"/>
					</g>
				</g>
				<g>
					<g>
						<path style="fill:#FF1A1A;" d="M626.54,192.129l0.036-0.094c0,0-9.554-14.543-28.104-7.479
							c-0.082,0.031,2.376,14.007-9.704,13.593c-7.553-0.259-9.885-4.426-9.885-9.885c0-0.652,0.067-1.287,0.187-1.903
							c-4.825-1.385-14.449-2.187-22.403,9.342c-0.219,0.318-0.406,0.636-0.577,0.954c-13.935,22.831,7.169,72.274,7.169,72.274
							l50.542,0.148l-0.373-38.109l22.628-9.861C636.861,208.116,630.794,197.426,626.54,192.129z"/>
						<g>
							<path style="fill:#471006;" d="M613.135,230.661c-0.464,0-0.839-0.375-0.839-0.839v-17.504c0-0.464,0.375-0.839,0.839-0.839
								c0.464,0,0.839,0.375,0.839,0.839v17.504C613.975,230.285,613.599,230.661,613.135,230.661z"/>
						</g>
						<g>
							<path style="fill:#471006;" d="M565.806,230.661c-0.464,0-0.839-0.375-0.839-0.839v-17.504c0-0.464,0.375-0.839,0.839-0.839
								c0.464,0,0.839,0.375,0.839,0.839v17.504C566.645,230.285,566.27,230.661,565.806,230.661z"/>
						</g>
					</g>
					<g>
						<path style="fill:#91A7CA;" d="M508.667,264.357l-0.958-47.966c-0.04-1.981,1.541-3.616,3.522-3.643l50.451-0.699
							c2.009-0.028,3.645,1.605,3.622,3.614l-0.581,49.382c-0.023,1.982-1.654,3.566-3.636,3.53
							c-10.135-0.187-38.854-0.701-48.861-0.717C510.283,267.855,508.706,266.299,508.667,264.357z"/>
						<path style="fill:#FFFFFF;" d="M519.87,220.058c0,1.336-1.083,2.418-2.418,2.418s-2.418-1.082-2.418-2.418
							c0-1.335,1.083-2.418,2.418-2.418S519.87,218.723,519.87,220.058z"/>
					</g>
					<g>
						<path style="fill:#E2A052;" d="M613.732,230.741c0,0,0.327,30.982-1.825,30.743c-2.151-0.239-42.075,2.956-42.075,2.956
							l-0.503,6.753c0,0,55.637,9.742,58.505,3.767c2.868-5.975,5.591-52.827,5.591-52.827L613.732,230.741z"/>
						<g>
							<g>
								<g>
									<path style="fill:#E2A052;" d="M570.646,271.165c0,0-18.693-0.173-20.87-1.943c-2.177-1.77-10.237-12.023-8.814-14.58
										c1.423-2.556,10.368,5.771,10.368,5.771l6.503-0.206c0,0-4.845-1.103-5.348-2.872c-0.504-1.769,9.362,0.56,9.362,0.56
										s6.074,5.799,10.604,7.018C576.982,266.134,574.562,271.245,570.646,271.165z"/>
								</g>
							</g>
							<g>
								<g>
									<path style="fill:#AA6E2D;" d="M540.56,254.705c-0.048,0.087-0.06,0.195-0.022,0.296c2.526,6.697,9.178,12.42,9.244,12.477
										c0.148,0.126,0.37,0.108,0.497-0.039c0.127-0.147,0.109-0.371-0.039-0.497c-0.066-0.056-6.581-5.665-9.042-12.19
										c-0.069-0.182-0.272-0.274-0.454-0.205C540.663,254.577,540.6,254.635,540.56,254.705z"/>
								</g>
							</g>
							<g>
								<g>
									<path style="fill:#AA6E2D;" d="M542.669,254.217c-0.049,0.087-0.06,0.195-0.022,0.296c2.53,6.708,8.493,11.225,8.552,11.27
										c0.156,0.117,0.376,0.085,0.493-0.071c0.112-0.158,0.085-0.377-0.07-0.493c-0.058-0.043-5.859-4.444-8.315-10.954
										c-0.069-0.182-0.272-0.274-0.454-0.205C542.771,254.089,542.708,254.146,542.669,254.217z"/>
								</g>
							</g>
						</g>
					</g>
				</g>
				<g>
					<g>
						<path style="fill:#E2A052;" d="M488.011,356.511l-13.939,30.392c0,0,2.742,10.397,13.711,8.684l19.881-28.107L488.011,356.511
							z"/>
						<g>
							<path style="fill:#FFC646;" d="M477.456,376.008c0,0-10.781,15.181-18.305,16.087c-7.525,0.906-25.62-5.405-29.224,1.157
								c0,0,12.568,14.994,29.091,16.407l23.265,10.384l14.487-34.104c0,0-4.308-3.24-6.642,0.996
								c-2.334,4.236-6.699,12.566-6.699,12.566l-7.044-9.179l4.434-8.935C480.818,381.388,482.22,376.458,477.456,376.008z"/>
							<polygon style="fill:#471006;" points="490.128,386.936 480.355,382.086 476.384,390.323 483.428,399.502 							"/>
							<g>
								<path style="fill:#471006;" d="M467.113,414.673l-0.545-0.439c7.448-9.251,20.851-7.181,20.985-7.159l-0.112,0.69
									C487.31,407.745,474.302,405.744,467.113,414.673z"/>
							</g>
							<path style="fill:#471006;" d="M459.018,409.659c-16.523-1.413-29.091-16.407-29.091-16.407
								c3.549,13.534,36.03,21.358,36.03,21.358l-0.829,2.372l15.739,6.689l1.417-3.628L459.018,409.659z"/>
						</g>
					</g>
					<g>
						<path style="fill:#E2A052;" d="M541.441,387.155l3.288,33.274c0,0,7.611,7.596,16.219,0.585l2.995-34.297L541.441,387.155z"/>
						<g>
							<path style="fill:#FFC646;" d="M541.17,396.472c0,0-2.497,18.451-8.74,22.748c-6.243,4.297-25.199,7.112-25.343,14.598
								c0,0,18.094,7.441,33.384,1.019l25.426-1.609l-3.009-36.931c0,0-5.32-0.868-5.419,3.967s-0.097,14.24-0.097,14.24
								l-10.502-4.857l-0.223-9.972C546.646,399.675,545.599,394.658,541.17,396.472z"/>
							<polygon style="fill:#471006;" points="557.468,400.264 546.561,400.508 546.87,409.647 557.371,414.504 							"/>
							<g>
								<path style="fill:#471006;" d="M549.968,435.517l-0.687-0.135c2.299-11.652,15.131-16.043,15.26-16.086l0.221,0.664
									C564.637,420.002,552.187,424.271,549.968,435.517z"/>
							</g>
							<path style="fill:#471006;" d="M540.471,434.837c-15.289,6.422-33.384-1.019-33.384-1.019
								c9.429,10.338,41.828,2.181,41.828,2.181l0.367,2.486l17.045-1.386l-0.43-3.871L540.471,434.837z"/>
						</g>
					</g>
				</g>
			</g>
			<g>
				<path style="fill:#FFFFFD;" d="M497.918,184.626c0.575,0.115,14.953,14.953,14.953,14.953l-3.681-17.254L497.918,184.626z"/>
				<rect x="462.067" y="134.385" style="fill:#FFFFFD;" width="60.566" height="50.281"/>
				<rect x="499.032" y="142.281" style="fill:#4252D4;" width="14.559" height="14.559"/>
				<rect x="499.032" y="161.978" style="fill:#4252D4;" width="14.559" height="14.559"/>
				<g>
					<path style="fill:#4252D4;" d="M468.846,142.583h23.391c0.143,0,0.261,0.117,0.261,0.261l0,0c0,0.143-0.117,0.261-0.261,0.261
						h-23.391c-0.143,0-0.261-0.117-0.261-0.261l0,0C468.585,142.701,468.702,142.583,468.846,142.583z"/>
					<path style="fill:#4252D4;" d="M468.846,145.189h23.391c0.143,0,0.261,0.117,0.261,0.261v0c0,0.143-0.117,0.261-0.261,0.261
						h-23.391c-0.143,0-0.261-0.117-0.261-0.261v0C468.585,145.307,468.702,145.189,468.846,145.189z"/>
					<path style="fill:#4252D4;" d="M468.846,148.443h10.092c0.143,0,0.261-0.117,0.261-0.261l0,0c0-0.143-0.117-0.261-0.261-0.261
						h-10.092c-0.143,0-0.261,0.117-0.261,0.261l0,0C468.585,148.326,468.702,148.443,468.846,148.443z"/>
				</g>
				<g>
					<path style="fill:#4252D4;" d="M468.737,162.535h23.391c0.143,0,0.261,0.117,0.261,0.261l0,0c0,0.143-0.117,0.261-0.261,0.261
						h-23.391c-0.143,0-0.261-0.117-0.261-0.261l0,0C468.476,162.652,468.594,162.535,468.737,162.535z"/>
					<path style="fill:#4252D4;" d="M468.737,165.141h23.391c0.143,0,0.261,0.117,0.261,0.261l0,0c0,0.143-0.117,0.261-0.261,0.261
						h-23.391c-0.143,0-0.261-0.117-0.261-0.261l0,0C468.476,165.259,468.594,165.141,468.737,165.141z"/>
					<path style="fill:#4252D4;" d="M468.737,168.395h10.092c0.143,0,0.261-0.117,0.261-0.261l0,0c0-0.143-0.117-0.261-0.261-0.261
						h-10.092c-0.143,0-0.261,0.117-0.261,0.261l0,0C468.476,168.278,468.594,168.395,468.737,168.395z"/>
				</g>
				<g>
					<g>
						<path style="fill:#2B0D06;" d="M511.324,155.77c-0.117,0-0.235-0.045-0.324-0.134l-11.222-11.222
							c-0.179-0.179-0.179-0.47,0-0.649c0.179-0.179,0.47-0.179,0.649,0l11.222,11.222c0.179,0.179,0.179,0.47,0,0.649
							C511.559,155.725,511.441,155.77,511.324,155.77z"/>
					</g>
					<g>
						<path style="fill:#2B0D06;" d="M500.102,155.77c-0.117,0-0.235-0.045-0.325-0.134c-0.179-0.179-0.179-0.47,0-0.649
							l11.222-11.222c0.179-0.179,0.47-0.179,0.649,0c0.179,0.179,0.179,0.47,0,0.649l-11.222,11.222
							C500.336,155.725,500.219,155.77,500.102,155.77z"/>
					</g>
				</g>
				<g>
					<g>
						<path style="fill:#2B0D06;" d="M511.937,175.119c-0.117,0-0.235-0.045-0.325-0.135l-11.222-11.222
							c-0.179-0.179-0.179-0.47,0-0.649c0.179-0.179,0.47-0.179,0.649,0l11.222,11.222c0.179,0.179,0.179,0.47,0,0.649
							C512.172,175.074,512.055,175.119,511.937,175.119z"/>
					</g>
					<g>
						<path style="fill:#2B0D06;" d="M500.715,175.119c-0.117,0-0.235-0.045-0.325-0.135c-0.179-0.179-0.179-0.47,0-0.649
							l11.222-11.222c0.179-0.179,0.47-0.179,0.649,0c0.179,0.179,0.179,0.47,0,0.649l-11.222,11.222
							C500.95,175.074,500.832,175.119,500.715,175.119z"/>
					</g>
				</g>
			</g>
		</g>
	</g>
</g>
</svg>
